<svg width="25" height="25" viewBox="0 0 25 25" fill="none"
    xmlns="http://www.w3.org/2000/svg">
    <g clip-path="url(#clip0_32_54)">
        <path
            d="M26.2218 11.455L18.6109 20.9202C18.4305 21.1292 18.192 21.243 17.9455 21.2376C17.699 21.2322 17.4639 21.108 17.2896 20.8912C17.1153 20.6744 17.0154 20.382 17.0111 20.0755C17.0067 19.769 17.0982 19.4723 17.2663 19.248L23.2519 11.802H16.1944C13.0295 11.7988 9.95371 13.1049 7.45136 15.5147C4.94901 17.9245 3.16232 21.301 2.37268 25.1125C2.3096 25.4164 2.15205 25.6766 1.93468 25.836C1.71731 25.9954 1.45793 26.0409 1.21361 25.9624C0.969278 25.884 0.760017 25.688 0.631855 25.4177C0.503694 25.1474 0.46713 24.8248 0.53021 24.521C1.42531 20.2015 3.45021 16.375 6.28608 13.6439C9.12195 10.9129 12.6077 9.43243 16.1944 9.43573H23.2551L17.2663 1.98974C17.0982 1.76545 17.0067 1.4688 17.0111 1.16228C17.0154 0.855765 17.1153 0.563312 17.2896 0.346538C17.4639 0.129763 17.699 0.00559248 17.9455 0.000184331C18.192 -0.00522382 18.4305 0.108553 18.6109 0.317546L26.2218 9.78279C26.3999 10.0046 26.5 10.3053 26.5 10.6189C26.5 10.9324 26.3999 11.2331 26.2218 11.455Z"
            fill="var(--tertiary-color)" />
    </g>
    <defs>
        <clipPath id="clip0_32_54">
            <rect width="25" height="25" fill="white" transform="translate(0.5)" />
        </clipPath>
    </defs>
</svg>