<svg width="25" height="25" viewBox="0 0 27 26" fill="none" xmlns="http://www.w3.org/2000/svg">
    <path
        d="M26.6966 11.455L19.0857 20.9202C18.9054 21.1292 18.6668 21.243 18.4204 21.2376C18.1739 21.2322 17.9387 21.108 17.7644 20.8912C17.5901 20.6744 17.4903 20.382 17.4859 20.0755C17.4816 19.769 17.5731 19.4723 17.7411 19.248L23.7268 11.802H16.6693C13.5044 11.7988 10.4286 13.1049 7.92621 15.5147C5.42386 17.9245 3.63717 21.301 2.84754 25.1125C2.78446 25.4164 2.6269 25.6766 2.40953 25.836C2.19216 25.9954 1.93279 26.0409 1.68846 25.9624C1.44413 25.884 1.23487 25.688 1.10671 25.4177C0.978547 25.1474 0.941984 24.8248 1.00506 24.521C1.90016 20.2015 3.92507 16.375 6.76093 13.6439C9.5968 10.9129 13.0825 9.43243 16.6693 9.43573H23.73L17.7411 1.98974C17.5731 1.76545 17.4816 1.4688 17.4859 1.16228C17.4903 0.855765 17.5901 0.563312 17.7644 0.346538C17.9387 0.129763 18.1739 0.00559248 18.4204 0.000184331C18.6668 -0.00522382 18.9054 0.108553 19.0857 0.317546L26.6966 9.78279C26.8748 10.0046 26.9749 10.3053 26.9749 10.6189C26.9749 10.9324 26.8748 11.2331 26.6966 11.455Z"
        fill="var(--tertiary-color)" />
</svg>