<svg width="25" height="25" viewBox="0 0 25 25" fill="none" xmlns="http://www.w3.org/2000/svg">
    <path
        d="M10.1562 1.5625H14.8438C15.051 1.5625 15.2497 1.64481 15.3962 1.79132C15.5427 1.93784 15.625 2.13655 15.625 2.34375V3.90625H9.375V2.34375C9.375 2.13655 9.45731 1.93784 9.60382 1.79132C9.75034 1.64481 9.94905 1.5625 10.1562 1.5625ZM17.1875 3.90625V2.34375C17.1875 1.72215 16.9406 1.12601 16.501 0.686468C16.0615 0.24693 15.4654 0 14.8438 0L10.1562 0C9.53465 0 8.93851 0.24693 8.49897 0.686468C8.05943 1.12601 7.8125 1.72215 7.8125 2.34375V3.90625H3.91563C3.91042 3.90621 3.90521 3.90621 3.9 3.90625H2.34375C2.13655 3.90625 1.93784 3.98856 1.79132 4.13507C1.64481 4.28159 1.5625 4.4803 1.5625 4.6875C1.5625 4.8947 1.64481 5.09341 1.79132 5.23993C1.93784 5.38644 2.13655 5.46875 2.34375 5.46875H3.18438L4.51719 22.125C4.58004 22.9081 4.93555 23.6388 5.51293 24.1716C6.09031 24.7044 6.84718 25.0002 7.63281 25H17.3672C18.1528 25.0002 18.9097 24.7044 19.4871 24.1716C20.0644 23.6388 20.42 22.9081 20.4828 22.125L21.8156 5.46875H22.6562C22.8635 5.46875 23.0622 5.38644 23.2087 5.23993C23.3552 5.09341 23.4375 4.8947 23.4375 4.6875C23.4375 4.4803 23.3552 4.28159 23.2087 4.13507C23.0622 3.98856 22.8635 3.90625 22.6562 3.90625H21.1016C21.0964 3.90621 21.0911 3.90621 21.0859 3.90625H17.1875ZM20.2469 5.46875L18.925 22C18.8936 22.3916 18.7158 22.7569 18.4271 23.0233C18.1384 23.2897 17.76 23.4376 17.3672 23.4375H7.63281C7.24 23.4376 6.86156 23.2897 6.57287 23.0233C6.28418 22.7569 6.10643 22.3916 6.075 22L4.75313 5.46875H20.2469ZM8.54844 7.03125C8.75521 7.0193 8.95826 7.08994 9.11296 7.22765C9.26767 7.36536 9.36136 7.55886 9.37344 7.76562L10.1547 21.0469C10.1629 21.2512 10.0907 21.4506 9.95346 21.6023C9.81628 21.754 9.62509 21.8458 9.42095 21.8581C9.21681 21.8703 9.016 21.8021 8.86163 21.6679C8.70726 21.5338 8.61165 21.3445 8.59531 21.1406L7.8125 7.85938C7.80616 7.75674 7.82014 7.65386 7.85364 7.55664C7.88715 7.45942 7.93951 7.36977 8.00774 7.29283C8.07597 7.21589 8.15871 7.15318 8.25123 7.10829C8.34375 7.06341 8.44422 7.03722 8.54687 7.03125H8.54844ZM16.4516 7.03125C16.5542 7.03722 16.6547 7.06341 16.7472 7.10829C16.8397 7.15318 16.9225 7.21589 16.9907 7.29283C17.0589 7.36977 17.1113 7.45942 17.1448 7.55664C17.1783 7.65386 17.1923 7.75674 17.1859 7.85938L16.4047 21.1406C16.4005 21.2444 16.3757 21.3464 16.3316 21.4405C16.2876 21.5346 16.2252 21.619 16.1481 21.6887C16.0711 21.7584 15.9809 21.812 15.8829 21.8464C15.7848 21.8808 15.6809 21.8953 15.5772 21.8891C15.4735 21.8829 15.372 21.856 15.2788 21.8101C15.1856 21.7642 15.1025 21.7001 15.0344 21.6217C14.9662 21.5433 14.9144 21.452 14.8819 21.3533C14.8495 21.2546 14.837 21.1504 14.8453 21.0469L15.6266 7.76562C15.6386 7.55886 15.7323 7.36536 15.887 7.22765C16.0417 7.08994 16.2448 7.0193 16.4516 7.03125ZM12.5 7.03125C12.7072 7.03125 12.9059 7.11356 13.0524 7.26007C13.1989 7.40659 13.2812 7.6053 13.2812 7.8125V21.0938C13.2812 21.301 13.1989 21.4997 13.0524 21.6462C12.9059 21.7927 12.7072 21.875 12.5 21.875C12.2928 21.875 12.0941 21.7927 11.9476 21.6462C11.8011 21.4997 11.7188 21.301 11.7188 21.0938V7.8125C11.7188 7.6053 11.8011 7.40659 11.9476 7.26007C12.0941 7.11356 12.2928 7.03125 12.5 7.03125Z"
        fill="var(--tertiary-color)" />
</svg>